<svg xmlns="http://www.w3.org/2000/svg" xmlns:svg="http://www.w3.org/2000/svg" id="svg8" width="160" height="80" version="1.1" viewBox="0 0 331.034 86.667"><metadata id="metadata5"/><g id="layer1"><g id="g849" transform="translate(-6.3782077,-134.39996)" style="stroke:#dbe2e3"><g id="g1150" transform="matrix(1.0652089,0,0,1.1288219,-0.41591625,-49.34671)"><g id="g1181" transform="matrix(0.99502116,0,0,1.0255618,10.468623,-3.4355048)"><g id="g1022" transform="translate(313.92206,-152.00889)" style="stroke:#dbe2e3"><path style="fill:#fff;fill-opacity:1;stroke:#fff;stroke-width:5;stroke-miterlimit:4;stroke-dasharray:none" id="path986" d="m -258.77004,318.97238 c -1.19858,-0.0322 -5.69794,-0.14948 -9.9986,-0.26056 -13.61055,-0.35153 -30.1829,-1.01705 -32.03651,-1.28654 l -0.88706,-0.12896 1.01523,-0.35373 c 0.94755,-0.33015 1.69045,-0.35174 11.14204,-0.32382 5.5697,0.0164 12.49181,0.0811 15.38246,0.14369 5.74916,0.12446 42.2927,-0.18199 57.81236,-0.48481 10.58433,-0.20652 27.62423,-0.68125 50.45247,-1.40558 8.00804,-0.2541 15.48589,-0.46199 16.61749,-0.46199 1.83704,0 2.04381,0.0351 1.93018,0.3274 -0.07,0.18008 -0.3253,0.8016 -0.56734,1.38117 l -0.44009,1.05376 -2.20594,0.11711 c -7.51001,0.39872 -35.28366,1.21241 -48.35332,1.41662 -11.18804,0.17482 -55.87284,0.37355 -59.86337,0.26624 z"/><path style="fill:#1d90c9;fill-opacity:1;stroke:#fff;stroke-width:0;stroke-miterlimit:4;stroke-dasharray:none" id="path976" d="m -258.77004,318.97238 c -1.19858,-0.0322 -5.69794,-0.14948 -9.9986,-0.26056 -13.61055,-0.35153 -30.1829,-1.01705 -32.03651,-1.28654 l -0.88706,-0.12896 1.01523,-0.35373 c 0.94755,-0.33015 1.69045,-0.35174 11.14204,-0.32382 5.5697,0.0164 12.49181,0.0811 15.38246,0.14369 5.74916,0.12446 42.2927,-0.18199 57.81236,-0.48481 10.58433,-0.20652 27.62423,-0.68125 50.45247,-1.40558 8.00804,-0.2541 15.48589,-0.46199 16.61749,-0.46199 1.83704,0 2.04381,0.0351 1.93018,0.3274 -0.07,0.18008 -0.3253,0.8016 -0.56734,1.38117 l -0.44009,1.05376 -2.20594,0.11711 c -7.51001,0.39872 -35.28366,1.21241 -48.35332,1.41662 -11.18804,0.17482 -55.87284,0.37355 -59.86337,0.26624 z"/><path style="fill:#fff;fill-opacity:1;stroke:#fff;stroke-width:5;stroke-miterlimit:4;stroke-dasharray:none" id="path988" d="m -132.25617,315.54212 c -0.28268,-0.15074 -0.2891,-0.30729 -0.0441,-1.07519 0.15767,-0.49431 0.40771,-0.99794 0.55563,-1.11916 0.42423,-0.34767 10.80449,-0.71951 33.088181,-1.18528 17.01569,-0.35567 60.40816,-0.14171 73.16886,0.36077 3.36155,0.13237 3.48788,0.14886 1.34873,0.17598 -1.29816,0.0164 -9.5423,0.1124 -18.3203,0.21321 -23.5476,0.27043 -32.73437,0.50369 -59.231961,1.50396 -16.59434,0.62643 -27.1674,1.06658 -28.99781,1.20717 -0.67998,0.0522 -1.38521,0.0156 -1.56717,-0.0815 z"/><path style="fill:#1d90c9;fill-opacity:1;stroke:#fff;stroke-width:0;stroke-miterlimit:4;stroke-dasharray:none" id="path980" d="m -132.25617,315.54212 c -0.28268,-0.15074 -0.2891,-0.30729 -0.0441,-1.07519 0.15767,-0.49431 0.40771,-0.99794 0.55563,-1.11916 0.42423,-0.34767 10.80449,-0.71951 33.088181,-1.18528 17.01569,-0.35567 60.40816,-0.14171 73.16886,0.36077 3.36155,0.13237 3.48788,0.14886 1.34873,0.17598 -1.29816,0.0164 -9.5423,0.1124 -18.3203,0.21321 -23.5476,0.27043 -32.73437,0.50369 -59.231961,1.50396 -16.59434,0.62643 -27.1674,1.06658 -28.99781,1.20717 -0.67998,0.0522 -1.38521,0.0156 -1.56717,-0.0815 z"/><path style="fill:#fff;fill-opacity:1;stroke:#fff;stroke-width:5;stroke-linecap:round;stroke-linejoin:miter;stroke-miterlimit:20;stroke-dasharray:none" id="path990" d="m -285.02452,364.76841 c -1.88804,-0.21292 -4.84115,-0.82789 -6.27536,-1.30681 l -1.05286,-0.35157 1.92552,-0.008 c 21.43019,-0.0944 60.76945,-0.60536 80.42908,-1.04467 12.06377,-0.26957 16.81307,-0.39196 47.21185,-1.21664 7.88108,-0.2138 14.51313,-0.34416 14.73794,-0.28969 0.29271,0.0709 0.40868,0.46492 0.40868,1.38848 v 1.28943 l -1.55525,0.11695 c -0.85541,0.0643 -4.91352,0.21542 -9.01803,0.33578 l -7.46277,0.21882 -1.92573,-0.79237 c -2.84205,-1.16941 -4.74649,-1.33438 -9.11724,-0.78977 -1.84423,0.22981 -5.09505,0.7891 -7.22397,1.24287 -3.55685,0.75812 -4.25377,0.84214 -8.59396,1.03601 -6.04138,0.26986 -90.23146,0.42613 -92.4879,0.17167 z"/><path style="fill:#1d90c9;fill-opacity:1;stroke:#fff;stroke-width:0;stroke-miterlimit:4;stroke-dasharray:none" id="path982" d="m -285.02452,364.76841 c -1.88804,-0.21292 -4.84115,-0.82789 -6.27536,-1.30681 l -1.05286,-0.35157 1.92552,-0.008 c 21.43019,-0.0944 60.76945,-0.60536 80.42908,-1.04467 12.06377,-0.26957 16.81307,-0.39196 47.21185,-1.21664 7.88108,-0.2138 14.51313,-0.34416 14.73794,-0.28969 0.29271,0.0709 0.40868,0.46492 0.40868,1.38848 v 1.28943 l -1.55525,0.11695 c -0.85541,0.0643 -4.91352,0.21542 -9.01803,0.33578 l -7.46277,0.21882 -1.92573,-0.79237 c -2.84205,-1.16941 -4.74649,-1.33438 -9.11724,-0.78977 -1.84423,0.22981 -5.09505,0.7891 -7.22397,1.24287 -3.55685,0.75812 -4.25377,0.84214 -8.59396,1.03601 -6.04138,0.26986 -90.23146,0.42613 -92.4879,0.17167 z"/><path style="fill:#fff;fill-opacity:1;stroke:#fff;stroke-width:5;stroke-miterlimit:4;stroke-dasharray:none" id="path992" d="m -144.45655,361.55001 c 0.003,-1.04425 0.1896,-1.58734 0.58623,-1.71528 0.8454,-0.2727 15.65679,-0.77618 42.81132,-1.45527 13.062591,-0.32667 56.048951,-0.32129 67.103981,0.008 15.7133,0.46861 15.64484,0.49478 -1.66924,0.63807 -26.28147,0.21749 -46.41719,0.72572 -72.668181,1.83416 -6.71507,0.28354 -10.29729,0.34632 -14.57815,0.25549 -5.42493,-0.1151 -5.82774,-0.0991 -9.12526,0.36279 -2.97862,0.41721 -8.96725,0.86311 -11.62913,0.86588 -0.83416,8e-4 -0.83459,5.3e-4 -0.83157,-0.79425 z"/><path style="fill:#1d90c9;fill-opacity:1;stroke:#fff;stroke-width:0;stroke-miterlimit:4;stroke-dasharray:none" id="path984" d="m -144.45655,361.55001 c 0.003,-1.04425 0.1896,-1.58734 0.58623,-1.71528 0.8454,-0.2727 15.65679,-0.77618 42.81132,-1.45527 13.062591,-0.32667 56.048951,-0.32129 67.103981,0.008 15.7133,0.46861 15.64484,0.49478 -1.66924,0.63807 -26.28147,0.21749 -46.41719,0.72572 -72.668181,1.83416 -6.71507,0.28354 -10.29729,0.34632 -14.57815,0.25549 -5.42493,-0.1151 -5.82774,-0.0991 -9.12526,0.36279 -2.97862,0.41721 -8.96725,0.86311 -11.62913,0.86588 -0.83416,8e-4 -0.83459,5.3e-4 -0.83157,-0.79425 z"/><g id="g962" transform="translate(401.45011,7.0774346)" style="stroke-width:5;stroke-miterlimit:4;stroke-dasharray:none"><path style="fill:#fff;fill-opacity:1;stroke:#fff;stroke-width:5;stroke-miterlimit:4;stroke-dasharray:none" id="path938" d="m -551.20947,380.07606 c -1.61571,-2.61432 -1.80967,-11.30411 -0.66254,-29.6823 0.66955,-10.72708 0.99462,-20.9894 0.72231,-22.80516 -0.27229,-1.81578 -1.49897,-4.68725 -2.72595,-6.38103 -1.22701,-1.69381 -2.23089,-3.80069 -2.23089,-4.68199 0,-0.88122 1.91574,-7.43259 4.25723,-14.55859 4.35991,-13.26885 5.91606,-16.04751 10.25731,-18.31549 2.84189,-1.48468 3.93457,-1.34726 6.50865,0.81873 2.96529,2.49512 5.43584,7.90834 5.43226,11.90273 -0.003,1.77154 -1.36167,7.64336 -3.02244,13.0484 -4.96011,16.14289 -9.82588,41.04984 -9.82588,50.29684 0,3.75312 0.53313,3.78984 10.17545,0.70115 8.75824,-2.80554 11.38502,-2.62948 23.92016,1.60295 7.77497,2.6252 9.59064,2.96156 15.98567,2.96156 h 7.21448 l 2.31436,2.63591 c 2.76667,3.15108 4.08972,7.48065 3.24104,10.60614 -0.6118,2.25309 -0.61701,2.25494 -6.21834,2.19022 -5.01243,-0.0579 -7.04681,-0.611 -19.21317,-5.22359 -13.20393,-5.00594 -13.81996,-5.16083 -20.78868,-5.22689 -8.59071,-0.0814 -11.68353,1.09892 -18.37585,7.01304 -4.36044,3.85342 -6.0371,4.59902 -6.96518,3.09737 z"/><path style="fill:#fff;fill-opacity:1;stroke:#fff;stroke-width:5;stroke-miterlimit:4;stroke-dasharray:none" id="path940" d="m -642.6631,374.79525 c -13.58415,-2.42383 -29.66823,-8.88612 -39.39881,-15.82971 -2.55183,-1.82097 -6.73002,-5.59205 -9.28492,-8.38028 -5.00231,-5.45915 -10.65852,-15.64812 -10.65852,-19.20004 0,-1.16404 1.1888,-4.27128 2.64178,-6.90505 1.45296,-2.63374 3.95841,-7.54327 5.5676,-10.91012 3.39606,-7.10522 6.86345,-11.21111 13.41745,-15.88791 8.9449,-6.38294 20.29632,-10.6217 37.54347,-14.01918 11.39997,-2.24566 32.38847,-2.46896 39.85945,-0.42408 9.54294,2.612 14.09454,6.89975 12.41494,11.69525 -0.67979,1.94095 -1.05225,2.09409 -5.61361,2.30851 -3.71166,0.17444 -7.49837,-0.43889 -15.76025,-2.55256 -10.8711,-2.78128 -10.87879,-2.7821 -23.0695,-2.36898 -19.30868,0.65426 -33.46339,5.28587 -42.43996,13.88698 -10.45548,10.01813 -9.27248,22.59713 3.38979,36.04394 15.40341,16.35784 40.63773,25.46681 67.67682,24.4298 11.41219,-0.4377 16.2419,-1.50045 25.84992,-5.68803 8.15322,-3.55354 11.24331,-2.99316 5.91315,1.07238 -3.66983,2.7991 -15.23693,7.6582 -23.40703,9.83273 -15.1588,4.03466 -32.10155,5.13393 -44.64177,2.89635 z"/><path style="fill:#fff;fill-opacity:1;stroke:#fff;stroke-width:5;stroke-miterlimit:4;stroke-dasharray:none" id="path942" d="m -487.23856,345.78284 c -0.23387,-0.019 -0.56341,-0.0576 -0.73232,-0.0857 l -0.3071,-0.0512 v -13.34299 c 0,-7.33867 0.0269,-13.43869 0.0583,-13.55561 l 0.057,-0.21262 h 4.65963 4.65963 l 0.0486,0.4961 c 0.0267,0.27283 0.0936,2.21824 0.14864,4.3231 0.097,3.70978 0.19053,4.91757 0.40024,5.1703 0.15216,0.18331 0.53263,0.14595 0.86619,-0.085 0.89294,-0.61827 3.04546,-2.61239 8.33009,-7.71697 l 2.36236,-2.28184 h 4.8192 c 4.84132,0 7.22876,0.0639 7.22876,0.19238 0,0.0764 -2.2656,2.07229 -5.9531,5.2443 -1.32527,1.14001 -2.9732,2.62607 -3.66199,3.30235 -1.02997,1.01129 -1.25233,1.2777 -1.25204,1.50026 0,0.50157 1.72273,2.9668 8.44516,12.08956 1.15644,1.56935 2.44591,3.32642 2.86549,3.90459 l 0.7629,1.05119 -0.48509,0.0583 c -0.26678,0.032 -2.84038,0.0587 -5.71907,0.0591 -4.87225,0 -5.24309,-0.0106 -5.36549,-0.16454 -0.31697,-0.39868 -1.83245,-2.73529 -3.38608,-5.22082 -2.87904,-4.60594 -3.83953,-5.95312 -4.24434,-5.95312 -0.11774,0 -0.50774,0.20682 -0.8667,0.45961 -1.37739,0.96996 -4.78758,3.79732 -4.89958,4.06223 -0.0768,0.18145 -0.23659,2.57032 -0.31829,4.75659 -0.0382,1.02333 -0.0897,1.87889 -0.11449,1.90125 -0.0583,0.0526 -7.84918,0.14435 -8.40774,0.099 z"/><path style="fill:#fff;fill-opacity:1;stroke:#fff;stroke-width:5;stroke-miterlimit:4;stroke-dasharray:none" id="path944" d="m -446.30604,345.74196 c -0.90035,-0.0391 -1.65357,-0.0877 -1.67378,-0.10787 -0.12311,-0.12311 -0.15518,-5.52688 -0.0924,-15.58251 l 0.0717,-11.4913 13.60191,-0.0701 c 7.48104,-0.0385 13.62199,-0.05 13.6466,-0.0254 0.0246,0.0246 0.0153,1.17017 -0.0206,2.54571 l -0.0654,2.501 -4.54488,0.0625 c -2.49968,0.0344 -6.42649,0.0906 -8.72625,0.12491 l -4.18137,0.0624 v 2.53178 2.53177 l 0.3071,0.0459 c 0.16891,0.0251 3.83646,0.095 8.15012,0.15505 4.31366,0.0601 7.86426,0.12999 7.89025,0.15536 0.0997,0.0974 0.0475,4.55639 -0.0544,4.65831 -0.07,0.07 -2.41139,0.11665 -7.51226,0.14983 -4.07583,0.0265 -7.71888,0.0715 -8.09567,0.10009 l -0.68509,0.0519 v 3.04747 3.04749 l 5.82697,0.0628 c 3.20482,0.0345 7.28697,0.0627 9.07143,0.0627 h 3.24448 v 2.74032 2.74034 l -12.26061,-0.0145 c -6.74333,-0.008 -12.99728,-0.0466 -13.89766,-0.0858 z"/><path style="fill:#fff;fill-opacity:1;stroke:#fff;stroke-width:5;stroke-miterlimit:4;stroke-dasharray:none" id="path946" d="m -528.00093,344.68026 c 0.17827,-0.46455 2.88025,-6.48618 6.0044,-13.38143 l 5.68028,-12.53678 5.39809,0.15158 5.39808,0.15158 3.68313,8.01809 c 2.0257,4.40995 4.72422,10.36339 5.99665,13.22986 l 2.31354,5.21173 -4.64666,-0.006 -4.64664,-0.006 -0.89575,-2.13267 -0.89574,-2.13273 h -6.7 -6.69996 l -0.64061,2.13815 -0.64061,2.13815 h -4.51614 c -3.89655,0 -4.4717,-0.11588 -4.19206,-0.84463 z m 20.56744,-8.72257 c 0.61145,-0.38735 0.57594,-0.93599 -0.21564,-3.33269 -1.60502,-4.85957 -2.85089,-7.41259 -3.61733,-7.41259 -0.85484,0 -4.40473,9.78998 -3.86599,10.66167 0.41741,0.67538 6.65782,0.74317 7.69896,0.0836 z"/><path style="fill:#fff;fill-opacity:1;stroke:#fff;stroke-width:5;stroke-miterlimit:4;stroke-dasharray:none" id="path948" d="m -590.75174,332.16142 v -13.36346 h 4.53228 4.53229 l 0.14494,10.55714 0.14491,10.55713 8.15173,0.14756 8.15171,0.14756 v 2.65877 2.65877 h -12.82893 -12.82893 z"/><path style="fill:#fff;fill-opacity:1;stroke:#fff;stroke-width:5;stroke-miterlimit:4;stroke-dasharray:none" id="path950" d="m -618.92942,345.3173 c -6.50517,-2.12929 -9.69597,-5.80424 -10.16473,-11.70718 -0.14499,-1.82575 0.0188,-4.36369 0.36417,-5.63983 0.82494,-3.04887 4.13586,-6.58508 7.65543,-8.17634 2.41699,-1.09278 3.62363,-1.26328 8.94125,-1.26328 5.33611,0 6.52012,0.16854 8.97366,1.27723 5.55321,2.50931 8.67132,7.98457 7.96131,13.97957 -0.5879,4.96388 -3.34655,8.61113 -8.11509,10.72902 -3.37222,1.49772 -12.11678,1.94617 -15.616,0.80081 z m 11.38582,-5.48444 c 2.06277,-1.35157 2.98955,-3.67168 3.0394,-7.6087 0.0771,-6.0946 -2.20237,-8.61536 -7.79079,-8.61536 -5.50376,0 -8.16938,3.36608 -7.73102,9.76254 0.22775,3.32314 1.43635,5.51981 3.66792,6.66665 1.89839,0.97563 7.20077,0.85222 8.81449,-0.20513 z"/><path style="fill:#fff;fill-opacity:1;stroke:#fff;stroke-width:5;stroke-miterlimit:4;stroke-dasharray:none" id="path952" d="m -657.74427,345.3223 c -3.85304,-1.07847 -6.76227,-3.38172 -8.53292,-6.75552 -1.37392,-2.61798 -1.51907,-3.36328 -1.3595,-6.98183 0.25455,-5.77379 2.05644,-8.61351 7.09615,-11.18338 3.57245,-1.82168 3.83304,-1.8709 9.90682,-1.8709 5.88274,0 6.41696,0.0916 9.3836,1.60917 5.82004,2.9772 8.53049,8.55613 7.22109,14.8634 -0.85373,4.11236 -3.23016,7.13837 -7.20082,9.16902 -2.77476,1.41907 -3.73195,1.61383 -8.52966,1.73541 -3.32843,0.0844 -6.39541,-0.1405 -7.98476,-0.58537 z m 11.46913,-5.44555 c 2.09225,-1.08196 3.13857,-3.65402 3.13857,-7.71533 0,-6.49959 -2.31841,-8.83586 -8.38501,-8.44957 -2.97173,0.18923 -3.62461,0.43455 -5.11027,1.92021 -1.52969,1.52969 -1.72493,2.08632 -1.91567,5.4623 -0.24558,4.34605 0.4136,6.37672 2.69235,8.29416 1.29212,1.08725 2.14926,1.32553 4.76808,1.32553 1.8527,0 3.87237,-0.35144 4.81195,-0.8373 z"/></g><g id="g972" transform="translate(401.45011,121.20226)"><path style="fill:#3e4095;fill-opacity:1;stroke:#fff;stroke-width:0;stroke-miterlimit:4;stroke-dasharray:none" id="path887" d="m -551.20947,265.95197 c -1.61571,-2.61432 -1.80967,-11.30411 -0.66254,-29.6823 0.66955,-10.72708 0.99462,-20.9894 0.72231,-22.80516 -0.27229,-1.81578 -1.49897,-4.68725 -2.72595,-6.38103 -1.22701,-1.69381 -2.23089,-3.80069 -2.23089,-4.68199 0,-0.88122 1.91574,-7.43259 4.25723,-14.55859 4.35991,-13.26885 5.91606,-16.04751 10.25731,-18.31549 2.84189,-1.48468 3.93457,-1.34726 6.50865,0.81873 2.96529,2.49512 5.43584,7.90834 5.43226,11.90273 -0.003,1.77154 -1.36167,7.64336 -3.02244,13.0484 -4.96011,16.14289 -9.82588,41.04984 -9.82588,50.29684 0,3.75312 0.53313,3.78984 10.17545,0.70115 8.75824,-2.80554 11.38502,-2.62948 23.92016,1.60295 7.77497,2.6252 9.59064,2.96156 15.98567,2.96156 h 7.21448 l 2.31436,2.63591 c 2.76667,3.15108 4.08972,7.48065 3.24104,10.60614 -0.6118,2.25309 -0.61701,2.25494 -6.21834,2.19022 -5.01243,-0.0579 -7.04681,-0.611 -19.21317,-5.22359 -13.20393,-5.00594 -13.81996,-5.16083 -20.78868,-5.22689 -8.59071,-0.0814 -11.68353,1.09892 -18.37585,7.01304 -4.36044,3.85342 -6.0371,4.59902 -6.96518,3.09737 z"/><path style="fill:#3e4095;fill-opacity:1;stroke:#fff;stroke-width:0;stroke-miterlimit:4;stroke-dasharray:none" id="path889" d="m -642.6631,260.67116 c -13.58415,-2.42383 -29.66823,-8.88612 -39.39881,-15.82971 -2.55183,-1.82097 -6.73002,-5.59205 -9.28492,-8.38028 -5.00231,-5.45915 -10.65852,-15.64812 -10.65852,-19.20004 0,-1.16404 1.1888,-4.27128 2.64178,-6.90505 1.45296,-2.63374 3.95841,-7.54327 5.5676,-10.91012 3.39606,-7.10522 6.86345,-11.21111 13.41745,-15.88791 8.9449,-6.38294 20.29632,-10.6217 37.54347,-14.01918 11.39997,-2.24566 32.38847,-2.46896 39.85945,-0.42408 9.54294,2.612 14.09454,6.89975 12.41494,11.69525 -0.67979,1.94095 -1.05225,2.09409 -5.61361,2.30851 -3.71166,0.17444 -7.49837,-0.43889 -15.76025,-2.55256 -10.8711,-2.78128 -10.87879,-2.7821 -23.0695,-2.36898 -19.30868,0.65426 -33.46339,5.28587 -42.43996,13.88698 -10.45548,10.01813 -9.27248,22.59713 3.38979,36.04394 15.40341,16.35784 40.63773,25.46681 67.67682,24.4298 11.41219,-0.4377 16.2419,-1.50045 25.84992,-5.68803 8.15322,-3.55354 11.24331,-2.99316 5.91315,1.07238 -3.66983,2.7991 -15.23693,7.6582 -23.40703,9.83273 -15.1588,4.03466 -32.10155,5.13393 -44.64177,2.89635 z"/><path style="fill:#1d90c9;fill-opacity:1;stroke:#fff;stroke-width:0;stroke-miterlimit:4;stroke-dasharray:none" id="path939" d="m -487.23856,231.65875 c -0.23387,-0.019 -0.56341,-0.0576 -0.73232,-0.0857 l -0.3071,-0.0512 v -13.34299 c 0,-7.33867 0.0269,-13.43869 0.0583,-13.55561 l 0.057,-0.21262 h 4.65963 4.65963 l 0.0486,0.4961 c 0.0267,0.27283 0.0936,2.21824 0.14864,4.3231 0.097,3.70978 0.19053,4.91757 0.40024,5.1703 0.15216,0.18331 0.53263,0.14595 0.86619,-0.085 0.89294,-0.61827 3.04546,-2.61239 8.33009,-7.71697 l 2.36236,-2.28184 h 4.8192 c 4.84132,0 7.22876,0.0639 7.22876,0.19238 0,0.0764 -2.2656,2.07229 -5.9531,5.2443 -1.32527,1.14001 -2.9732,2.62607 -3.66199,3.30235 -1.02997,1.01129 -1.25233,1.2777 -1.25204,1.50026 0,0.50157 1.72273,2.9668 8.44516,12.08956 1.15644,1.56935 2.44591,3.32642 2.86549,3.90459 l 0.7629,1.05119 -0.48509,0.0583 c -0.26678,0.032 -2.84038,0.0587 -5.71907,0.0591 -4.87225,0 -5.24309,-0.0106 -5.36549,-0.16454 -0.31697,-0.39868 -1.83245,-2.73529 -3.38608,-5.22082 -2.87904,-4.60594 -3.83953,-5.95312 -4.24434,-5.95312 -0.11774,0 -0.50774,0.20682 -0.8667,0.45961 -1.37739,0.96996 -4.78758,3.79732 -4.89958,4.06223 -0.0768,0.18145 -0.23659,2.57032 -0.31829,4.75659 -0.0382,1.02333 -0.0897,1.87889 -0.11449,1.90125 -0.0583,0.0526 -7.84918,0.14435 -8.40774,0.099 z"/><path style="fill:#1d90c9;fill-opacity:1;stroke:#fff;stroke-width:0;stroke-miterlimit:4;stroke-dasharray:none" id="path941" d="m -446.30604,231.61787 c -0.90035,-0.0391 -1.65357,-0.0877 -1.67378,-0.10787 -0.12311,-0.12311 -0.15518,-5.52688 -0.0924,-15.58251 l 0.0717,-11.4913 13.60191,-0.0701 c 7.48104,-0.0385 13.62199,-0.05 13.6466,-0.0254 0.0246,0.0246 0.0153,1.17017 -0.0206,2.54571 l -0.0654,2.501 -4.54488,0.0625 c -2.49968,0.0344 -6.42649,0.0906 -8.72625,0.12491 l -4.18137,0.0624 v 2.53178 2.53177 l 0.3071,0.0459 c 0.16891,0.0251 3.83646,0.095 8.15012,0.15505 4.31366,0.0601 7.86426,0.12999 7.89025,0.15536 0.0997,0.0974 0.0475,4.55639 -0.0544,4.65831 -0.07,0.07 -2.41139,0.11665 -7.51226,0.14983 -4.07583,0.0265 -7.71888,0.0715 -8.09567,0.10009 l -0.68509,0.0519 v 3.04747 3.04749 l 5.82697,0.0628 c 3.20482,0.0345 7.28697,0.0627 9.07143,0.0627 h 3.24448 v 2.74032 2.74034 l -12.26061,-0.0145 c -6.74333,-0.008 -12.99728,-0.0466 -13.89766,-0.0858 z"/><path style="fill:#1d90c9;fill-opacity:1;stroke:#fff;stroke-width:0;stroke-miterlimit:4;stroke-dasharray:none" id="path949" d="m -528.00093,230.55617 c 0.17827,-0.46455 2.88025,-6.48618 6.0044,-13.38143 l 5.68028,-12.53678 5.39809,0.15158 5.39808,0.15158 3.68313,8.01809 c 2.0257,4.40995 4.72422,10.36339 5.99665,13.22986 l 2.31354,5.21173 -4.64666,-0.006 -4.64664,-0.006 -0.89575,-2.13267 -0.89574,-2.13273 h -6.7 -6.69996 l -0.64061,2.13815 -0.64061,2.13815 h -4.51614 c -3.89655,0 -4.4717,-0.11588 -4.19206,-0.84463 z m 20.56744,-8.72257 c 0.61145,-0.38735 0.57594,-0.93599 -0.21564,-3.33269 -1.60502,-4.85957 -2.85089,-7.41259 -3.61733,-7.41259 -0.85484,0 -4.40473,9.78998 -3.86599,10.66167 0.41741,0.67538 6.65782,0.74317 7.69896,0.0836 z"/><path style="fill:#1d90c9;fill-opacity:1;stroke:#fff;stroke-width:0;stroke-miterlimit:4;stroke-dasharray:none" id="path951" d="m -590.75174,218.03733 v -13.36346 h 4.53228 4.53229 l 0.14494,10.55714 0.14491,10.55713 8.15173,0.14756 8.15171,0.14756 v 2.65877 2.65877 h -12.82893 -12.82893 z"/><path style="fill:#1d90c9;fill-opacity:1;stroke:#fff;stroke-width:0;stroke-miterlimit:4;stroke-dasharray:none" id="path953" d="m -618.92942,231.19321 c -6.50517,-2.12929 -9.69597,-5.80424 -10.16473,-11.70718 -0.14499,-1.82575 0.0188,-4.36369 0.36417,-5.63983 0.82494,-3.04887 4.13586,-6.58508 7.65543,-8.17634 2.41699,-1.09278 3.62363,-1.26328 8.94125,-1.26328 5.33611,0 6.52012,0.16854 8.97366,1.27723 5.55321,2.50931 8.67132,7.98457 7.96131,13.97957 -0.5879,4.96388 -3.34655,8.61113 -8.11509,10.72902 -3.37222,1.49772 -12.11678,1.94617 -15.616,0.80081 z m 11.38582,-5.48444 c 2.06277,-1.35157 2.98955,-3.67168 3.0394,-7.6087 0.0771,-6.0946 -2.20237,-8.61536 -7.79079,-8.61536 -5.50376,0 -8.16938,3.36608 -7.73102,9.76254 0.22775,3.32314 1.43635,5.51981 3.66792,6.66665 1.89839,0.97563 7.20077,0.85222 8.81449,-0.20513 z"/><path style="fill:#1d90c9;fill-opacity:1;stroke:#fff;stroke-width:0;stroke-miterlimit:4;stroke-dasharray:none" id="path955" d="m -657.74427,231.19821 c -3.85304,-1.07847 -6.76227,-3.38172 -8.53292,-6.75552 -1.37392,-2.61798 -1.51907,-3.36328 -1.3595,-6.98183 0.25455,-5.77379 2.05644,-8.61351 7.09615,-11.18338 3.57245,-1.82168 3.83304,-1.8709 9.90682,-1.8709 5.88274,0 6.41696,0.0916 9.3836,1.60917 5.82004,2.9772 8.53049,8.55613 7.22109,14.8634 -0.85373,4.11236 -3.23016,7.13837 -7.20082,9.16902 -2.77476,1.41907 -3.73195,1.61383 -8.52966,1.73541 -3.32843,0.0844 -6.39541,-0.1405 -7.98476,-0.58537 z m 11.46913,-5.44555 c 2.09225,-1.08196 3.13857,-3.65402 3.13857,-7.71533 0,-6.49959 -2.31841,-8.83586 -8.38501,-8.44957 -2.97173,0.18923 -3.62461,0.43455 -5.11027,1.92021 -1.52969,1.52969 -1.72493,2.08632 -1.91567,5.4623 -0.24558,4.34605 0.4136,6.37672 2.69235,8.29416 1.29212,1.08725 2.14926,1.32553 4.76808,1.32553 1.8527,0 3.87237,-0.35144 4.81195,-0.8373 z"/></g></g><text style="font-style:normal;font-variant:normal;font-weight:700;font-stretch:normal;font-size:20.4475px;line-height:1.25;font-family:sans-serif;-inkscape-font-specification:'sans-serif, Bold';font-variant-ligatures:normal;font-variant-caps:normal;font-variant-numeric:normal;font-variant-east-asian:normal;fill:#3e4095;fill-opacity:1;stroke:none;stroke-width:.511193" id="text1119" x="8.564" y="232.671" transform="scale(0.88862018,1.1253402)" xml:space="preserve"><tspan id="tspan1117" x="8.564" y="232.671" style="font-style:normal;font-variant:normal;font-weight:700;font-stretch:normal;font-size:20.4475px;font-family:sans-serif;-inkscape-font-specification:'sans-serif, Bold';font-variant-ligatures:normal;font-variant-caps:normal;font-variant-numeric:normal;font-variant-east-asian:normal;fill:#3e4095;fill-opacity:1;stroke:none;stroke-width:.511193">SPECIALIST CONTRACTORS CC</tspan></text></g></g></g></g></svg>